<?xml version="1.0" encoding="UTF-8"?>
<svg width="256" height="64" viewBox="0 0 256 64" fill="none" xmlns="http://www.w3.org/2000/svg" aria-labelledby="title desc" role="img">
  <title id="title">MediTalk Logo</title>
  <desc id="desc">Friendly medical AI assistant logo with a smiling robot face in a rounded capsule and MediTalk wordmark</desc>
  <!-- Friendly capsule with gradient ring -->
  <defs>
    <linearGradient id="g1" x1="0" y1="0" x2="1" y2="1">
      <stop offset="0%" stop-color="#3b82f6"/>
      <stop offset="50%" stop-color="#4ade80"/>
      <stop offset="100%" stop-color="#fcd34d"/>
    </linearGradient>
    <filter id="soft" x="-20%" y="-20%" width="140%" height="140%">
      <feGaussianBlur stdDeviation="0.5"/>
    </filter>
  </defs>

  <!-- Mascot: rounded chat-bubble/robot -->
  <g transform="translate(8,8)">
    <rect x="0" y="0" rx="14" ry="14" width="48" height="48" fill="#ffffff"/>
    <rect x="0.75" y="0.75" rx="14" ry="14" width="46.5" height="46.5" fill="none" stroke="url(#g1)" stroke-width="1.5"/>
    <!-- Antenna -->
    <circle cx="24" cy="-2" r="3" fill="#3b82f6"/>
    <path d="M24 -2 L24 4" stroke="#3b82f6" stroke-width="2"/>
    <!-- Eyes -->
    <circle cx="16.5" cy="22" r="3" fill="#3b82f6"/>
    <circle cx="31.5" cy="22" r="3" fill="#4ade80"/>
    <!-- Smile -->
    <path d="M16 30 C20 36, 28 36, 32 30" stroke="#f59e0b" stroke-width="2.5" stroke-linecap="round" fill="none"/>
    <!-- Chat tail -->
    <path d="M10 40 C14 38, 18 39, 19 43 C16 43, 12 42, 10 40 Z" fill="#e5f2ff"/>
    <!-- Soft highlight -->
    <ellipse cx="24" cy="10" rx="14" ry="6" fill="#e6fffb" filter="url(#soft)"/>
  </g>

  <!-- Wordmark -->
  <g transform="translate(72,16)">
    <path d="M0 24 L0 8 L4 8 L12 20 L20 8 L24 8 L24 24 L20 24 L20 14 L12 26 L4 14 L4 24 Z" fill="#111827"/>
    <path d="M32 24 L32 8 L36 8 L36 24 Z" fill="#111827"/>
    <path d="M40 16 C40 11.58 43.58 8 48 8 C52.42 8 56 11.58 56 16 C56 20.42 52.42 24 48 24 C43.58 24 40 20.42 40 16 Z M44 16 C44 18.21 45.79 20 48 20 C50.21 20 52 18.21 52 16 C52 13.79 50.21 12 48 12 C45.79 12 44 13.79 44 16 Z" fill="#111827"/>
    <path d="M60 24 L60 8 L64 8 L64 12 C65.3 9.6 67.69 8 70.5 8 C75.19 8 78 11.34 78 16 C78 20.66 75.19 24 70.5 24 C67.69 24 65.3 22.4 64 20 L64 24 Z M74 16 C74 13.79 72.21 12 70 12 C67.79 12 66 13.79 66 16 C66 18.21 67.79 20 70 20 C72.21 20 74 18.21 74 16 Z" fill="#111827"/>
    <path d="M82 24 L82 8 L86 8 L86 24 Z" fill="#111827"/>
    <path d="M90 24 L90 8 L94 8 L94 12 C95.3 9.6 97.69 8 100.5 8 C105.19 8 108 11.34 108 16 C108 20.66 105.19 24 100.5 24 C97.69 24 95.3 22.4 94 20 L94 24 Z M104 16 C104 13.79 102.21 12 100 12 C97.79 12 96 13.79 96 16 C96 18.21 97.79 20 100 20 C102.21 20 104 18.21 104 16 Z" fill="#111827"/>
    <path d="M112 16 C112 11.58 115.58 8 120 8 C123.03 8 125.67 9.52 127.23 11.86 L124 13.77 C123.23 12.67 121.76 12 120 12 C117.79 12 116 13.79 116 16 C116 18.21 117.79 20 120 20 C121.76 20 123.23 19.33 124 18.23 L127.23 20.14 C125.67 22.48 123.03 24 120 24 C115.58 24 112 20.42 112 16 Z" fill="#111827"/>
  </g>
</svg>
